# xmcd
#
# Track frame offsets:
#	150
#	16362
#	26907
#	37785
#	54982
#	70325
#	82525
#	93592
#	106762
#	119615
#	129910
#	139342
#	149915
#	165095
#	178647
#	189800
#	199860
#	212427
#	226117
#	243252
#
# Disc length: 3445 seconds
#
# Revision: 3
# Processed by: cddbd v1.5.2PL0 Copyright (c) Steve Scherf et al.
# Submitted via: EZCDAudioConverter 2.1.1.1
#
DISCID=020d7314
DTITLE=葉振棠 - 寶麗金極品音色系列
DYEAR=2002
DGENRE=Pop
TTITLE0=勝利雙手創
TTITLE1=緣份是天意
TTITLE2=三國演義
TTITLE3=忘盡心中情
TTITLE4=找不著藉口
TTITLE5=戲劇人生
TTITLE6=變色龍
TTITLE7=新變色龍
TTITLE8=大俠霍元甲
TTITLE9=大內群英
TTITLE10=浮生六劫
TTITLE11=天地恩情
TTITLE12=笑傲江湖
TTITLE13=天蠶變
TTITLE14=大丈夫
TTITLE15=醉紅塵
TTITLE16=天龍訣
TTITLE17=萬水千山縱橫
TTITLE18=笛子姑娘
TTITLE19=星河傳說
EXTD=
EXTT0=
EXTT1=
EXTT2=
EXTT3=
EXTT4=
EXTT5=
EXTT6=
EXTT7=
EXTT8=
EXTT9=
EXTT10=
EXTT11=
EXTT12=
EXTT13=
EXTT14=
EXTT15=
EXTT16=
EXTT17=
EXTT18=
EXTT19=
PLAYORDER=
